Coordinates
version=1
nRows=26
nColumns=24
inDegrees=yes

Units are S.I. units (second, meters, Newtons, ...)
Angles are in degrees.

endheader
time	pelvis_tilt	pelvis_list	pelvis_rotation	pelvis_tx	pelvis_ty	pelvis_tz	hip_flexion_r	hip_adduction_r	hip_rotation_r	knee_angle_r	ankle_angle_r	subtalar_angle_r	mtp_angle_r	hip_flexion_l	hip_adduction_l	hip_rotation_l	knee_angle_l	ankle_angle_l	subtalar_angle_l	mtp_angle_l	lumbar_extension	lumbar_bending	lumbar_rotation
      4.78500000	     -9.69579035	      4.89107283	     -3.15475654	     -1.08619837	     -0.01834539	     -0.67583169	     14.60970324	     -8.20099860	     -3.32789217	    -58.17763155	    -18.39721934	    -17.04470271	      2.51534627	     26.43385603	      5.49390974	    -13.95443631	    -22.92220126	      1.53258012	    -10.63176204	      1.88971650	      6.68184227	     -5.57340578	      1.63996806
      4.79000000	     -9.81370910	      4.86003623	     -3.16733010	     -1.08124306	     -0.01778381	     -0.67637278	     15.63230280	     -8.14040923	     -3.19646977	    -59.28224471	    -17.97632624	    -17.53297267	      2.00758095	     26.10081064	      5.55388770	    -13.86712134	    -22.70020352	      1.77943397	    -10.61400769	      1.85767481	      6.76134584	     -5.52658204	      1.53061022
      4.79500000	     -9.89120802	      4.83342049	     -3.13701543	     -1.07625689	     -0.01717969	     -0.67696706	     16.58189483	     -8.10729979	     -3.13969732	    -60.31098952	    -17.39709236	    -17.90139696	      1.36109931	     25.71091048	      5.64621373	    -13.75974684	    -22.45363229	      2.02360297	    -10.60438934	      1.70789173	      6.80560407	     -5.49028352	      1.36437229
      4.80000000	     -9.93848430	      4.79805934	     -3.10332441	     -1.07131719	     -0.01652040	     -0.67758632	     17.48859151	     -8.07101991	     -3.09413992	    -61.24821560	    -16.82001020	    -18.20638442	      0.90198088	     25.28262128	      5.73811176	    -13.63307474	    -22.19343069	      2.25874969	    -10.59302901	      1.51671546	      6.80581905	     -5.44202255	      1.17840673
      4.80500000	     -9.98288472	      4.75387466	     -3.06209169	     -1.06637140	     -0.01584145	     -0.67822526	     18.37105917	     -8.02649337	     -3.06108396	    -62.08930824	    -16.21690356	    -18.46465605	      0.62517954	     24.83925860	      5.82734673	    -13.49725034	    -21.91024589	      2.47901857	    -10.58881858	      1.33271244	      6.80619989	     -5.38118641	      0.98969198
      4.81000000	     -9.94008460	      4.67603583	     -3.01283854	     -1.06136928	     -0.01501165	     -0.67884058	     19.10610627	     -7.94639263	     -3.05914245	    -62.78105157	    -15.67022991	    -18.78843814	      0.67215254	     24.26962272	      5.88881564	    -13.33484089	    -21.58042257	      2.67791435	    -10.53577794	      1.33355467	      6.72181424	     -5.29188684	      0.80539913
      4.81500000	    -10.04132597	      4.66409187	     -2.97036780	     -1.05641693	     -0.01441258	     -0.67950470	     20.03773546	     -7.94058508	     -3.03124479	    -63.48514559	    -14.95198204	    -18.87140801	      0.54332180	     23.87598106	      6.00631307	    -13.26630152	    -21.25762500	      2.83184211	    -10.57901787	      1.14954833	      6.79885052	     -5.25327603	      0.61749067
      4.82000000	    -10.08468195	      4.61484741	     -2.91945216	     -1.05144957	     -0.01371679	     -0.68016892	     20.87039121	     -7.89183082	     -3.02609772	    -64.07721526	    -14.25116089	    -18.93837378	      0.39220633	     23.39662185	      6.09763713	    -13.11533479	    -20.91055774	      3.03063673	    -10.56441587	      0.94477628	      6.81446546	     -5.17664991	      0.44531071
      4.82500000	    -10.08966186	      4.55535487	     -2.87530042	     -1.04646956	     -0.01295891	     -0.68080294	     21.63657960	     -7.82506611	     -3.02493614	    -64.56842411	    -13.56794689	    -19.00471495	      0.32800588	     22.85980864	      6.17268842	    -12.99061804	    -20.53654745	      3.21923518	    -10.52117740	      0.78683545	      6.79206930	     -5.09147027	      0.27948107
      4.83000000	    -10.07996062	      4.49015709	     -2.82638365	     -1.04146848	     -0.01219095	     -0.68145331	     22.36588696	     -7.75747633	     -3.04611204	    -64.96840384	    -12.92744480	    -19.08166086	      0.35871409	     22.29244036	      6.24424994	    -12.86576187	    -20.13682791	      3.41369744	    -10.46184714	      0.71160228	      6.75973483	     -4.99526907	      0.12510619
      4.83500000	    -10.07083847	      4.43588260	     -2.77508251	     -1.03647289	     -0.01141282	     -0.68205757	     23.07272254	     -7.68595433	     -3.04071034	    -65.28630677	    -12.20040860	    -19.04457091	      0.41941858	     21.72124323	      6.31869747	    -12.77603855	    -19.72373266	      3.55863717	    -10.38818633	      0.60034341	      6.73012599	     -4.91578722	     -0.05737861
      4.84000000	    -10.04630898	      4.37570291	     -2.72083670	     -1.03146923	     -0.01064492	     -0.68268988	     23.74861332	     -7.62191440	     -3.07947661	    -65.52216778	    -11.55370153	    -19.08263622	      0.52551715	     21.12073801	      6.39098963	    -12.66790103	    -19.29110738	      3.73556756	    -10.29108679	      0.56209258	      6.68959486	     -4.82608078	     -0.21124005
      4.84500000	    -10.00890296	      4.31776400	     -2.65624987	     -1.02645964	     -0.00985945	     -0.68330077	     24.37954565	     -7.55246729	     -3.10407407	    -65.66777721	    -10.85346920	    -19.02631886	      0.68725030	     20.49881048	      6.46291026	    -12.58753193	    -18.84105772	      3.89123940	    -10.17253208	      0.52450033	      6.63384971	     -4.74312191	     -0.38386402
      4.85000000	     -9.96194436	      4.25381134	     -2.60478985	     -1.02142793	     -0.00907053	     -0.68387937	     24.98256170	     -7.47513153	     -3.14435614	    -65.72838746	    -10.20019685	    -19.01016639	      0.86909511	     19.85745018	      6.52116524	    -12.50471793	    -18.38033195	      4.03756829	    -10.04345054	      0.50947727	      6.57917878	     -4.65145378	     -0.54532555
      4.85500000	     -9.88997895	      4.19051609	     -2.53311178	     -1.01640051	     -0.00827197	     -0.68450343	     25.52652297	     -7.40526062	     -3.18631182	    -65.70073526	     -9.52385966	    -18.92747703	      1.11008742	     19.18236984	      6.58787395	    -12.43666520	    -17.90149145	      4.18918631	     -9.89286450	      0.50983560	      6.48951859	     -4.56094814	     -0.71685316
      4.86000000	     -9.79801501	      4.11773325	     -2.46567644	     -1.01136630	     -0.00745214	     -0.68510013	     26.02212186	     -7.32266756	     -3.23645645	    -65.58117024	     -8.88204040	    -18.86577202	      1.38389569	     18.48031563	      6.63964575	    -12.37450523	    -17.41416534	      4.32285322	     -9.73532506	      0.52335027	      6.38132384	     -4.45915281	     -0.88804052
      4.86500000	     -9.70641741	      4.03894370	     -2.40318814	     -1.00632957	     -0.00666300	     -0.68567619	     26.50210900	     -7.23770172	     -3.30961958	    -65.38779107	     -8.28914972	    -18.84359387	      1.64654975	     17.77568396	      6.68107563	    -12.29599499	    -16.92456056	      4.46063508	     -9.57463921	      0.55843722	      6.27922782	     -4.35222110	     -1.05031357
      4.87000000	     -9.53312404	      3.94108977	     -2.35331800	     -1.00128878	     -0.00575705	     -0.68623490	     26.85032537	     -7.12370151	     -3.37040815	    -65.07012685	     -7.77376023	    -18.89416102	      2.09110214	     16.96968467	      6.70087200	    -12.25325633	    -16.40639640	      4.54579577	     -9.42701910	      0.62818117	      6.08630515	     -4.22478713	     -1.20851692
      4.87500000	     -9.52950796	      3.86270844	     -2.26736403	     -0.99629924	     -0.00512142	     -0.68680602	     27.39408140	     -7.03792770	     -3.46358141	    -64.74238003	     -7.24777477	    -18.93612361	      2.22229595	     16.37674287	      6.73523282	    -12.14515423	    -15.93850929	      4.65831917	     -9.25721080	      0.66808989	      6.07080449	     -4.11162350	     -1.36018848
      4.88000000	     -9.39663791	      3.74673971	     -2.16223879	     -0.99130600	     -0.00439071	     -0.68743779	     27.74350976	     -6.94774772	     -3.60768657	    -64.31160856	     -6.66444596	    -18.85299005	      2.40801247	     15.64195977	      6.74206322	    -12.06275456	    -15.47007492	      4.81877011	     -9.08659283	      0.73988765	      5.91050676	     -3.97088256	     -1.58935719
      4.88500000	     -9.26661082	      3.63385902	     -2.07520399	     -0.98632124	     -0.00366493	     -0.68801478	     28.07744458	     -6.84254130	     -3.73953106	    -63.79667602	     -6.18010988	    -18.91045832	      2.52389120	     14.90503641	      6.74283294	    -11.97177297	    -14.98915142	      4.93689702	     -8.92438625	      0.80595657	      5.75307304	     -3.82706278	     -1.77081342
      4.89000000	     -9.16264060	      3.51780136	     -1.97967272	     -0.98134986	     -0.00300663	     -0.68860223	     28.41756139	     -6.74045502	     -3.88753589	    -63.21078442	     -5.72607206	    -18.98704418	      2.58194225	     14.20529485	      6.73687296	    -11.87169403	    -14.52320873	      5.05446944	     -8.75699477	      0.87438877	      5.62229960	     -3.67714950	     -1.95803569
      4.89500000	     -9.06797056	      3.40076446	     -1.87981106	     -0.97639535	     -0.00240930	     -0.68918145	     28.74734079	     -6.64184260	     -4.04978337	    -62.55792230	     -5.30036695	    -19.09009517	      2.57659401	     13.52245940	      6.72595686	    -11.77089300	    -14.06641273	      5.17662953	     -8.59065563	      0.94094350	      5.49766333	     -3.52382400	     -2.14779201
      4.90000000	     -8.94942940	      3.28350058	     -1.77597656	     -0.97145044	     -0.00180717	     -0.68975701	     29.02165853	     -6.54899210	     -4.22894812	    -61.82363409	     -4.91074248	    -19.22424216	      2.45986429	     12.81772634	      6.71071317	    -11.70395414	    -13.61118531	      5.27413868	     -8.40900939	      1.02031880	      5.34602407	     -3.37402450	     -2.35642246
      4.90500000	     -8.90437930	      3.16438546	     -1.66651714	     -0.96653720	     -0.00138479	     -0.69035564	     29.36211488	     -6.45721898	     -4.41036497	    -61.03718842	     -4.51876424	    -19.35114429	      2.33462496	     12.20974540	      6.69122352	    -11.56974372	    -13.19161237	      5.42809951	     -8.24532197	      1.08817733	      5.27056610	     -3.21269588	     -2.53361761
      4.91000000	     -8.81236618	      3.04661691	     -1.53368525	     -0.96162422	     -0.00093430	     -0.69094141	     29.61434234	     -6.38584753	     -4.63968585	    -60.16755689	     -4.16558735	    -19.52730483	      2.08389409	     11.55287796	      6.67121570	    -11.46487688	    -12.77099699	      5.56309711	     -8.05199070	      1.15490876	      5.14063406	     -3.06392592	     -2.76191606
